<svg xmlns="http://www.w3.org/2000/svg" viewBox="0 0 1072.31 500"><defs><style>.cls-1{fill:#fff;}.cls-2{fill:#f6f6f4;}.cls-3{fill:#aeafaa;}.cls-4{fill:#2a2b2d;}.cls-5{fill:#141416;}.cls-6{fill:none;}</style></defs><g id="图层_2" data-name="图层 2"><g id="图层_1-2" data-name="图层 1"><path class="cls-1" d="M526,218.73h39.34v13.42h-56V159.88H564V173.3H526Zm-1.24-29.84h34.8V202h-34.8Z"/><path class="cls-1" d="M594.61,232.15V221.31l44.7-53.89,2.07,6.09h-46V159.88h60.81v10.84l-44.6,53.9-2.06-6.1h48.21v13.63Z"/><path class="cls-1" d="M706.73,233a53.87,53.87,0,0,1-13.63-1.7A35.54,35.54,0,0,1,682.67,227l5.27-11.46a40.28,40.28,0,0,0,9.13,3.77,37.12,37.12,0,0,0,10.28,1.5c3.71,0,6.35-.45,7.9-1.35a4.13,4.13,0,0,0,2.32-3.71,3.17,3.17,0,0,0-1.81-3A15.74,15.74,0,0,0,711,211.3q-2.94-.53-6.55-1a66.15,66.15,0,0,1-7.18-1.45,28.24,28.24,0,0,1-6.61-2.63,13,13,0,0,1-4.85-4.7,14.88,14.88,0,0,1-1.8-7.74,15.08,15.08,0,0,1,3.09-9.35,20.17,20.17,0,0,1,8.78-6.35,37.05,37.05,0,0,1,13.73-2.27,53.65,53.65,0,0,1,11.61,1.29,35.87,35.87,0,0,1,9.86,3.56l-5.47,11.46a28.69,28.69,0,0,0-8-3.2,35.09,35.09,0,0,0-7.79-.93c-3.72,0-6.41.49-8.06,1.45a4.27,4.27,0,0,0-2.48,3.72,3.46,3.46,0,0,0,1.86,3.15,14.81,14.81,0,0,0,4.86,1.6q3,.51,6.6,1a61.23,61.23,0,0,1,7.13,1.44,27.9,27.9,0,0,1,6.55,2.64,12.92,12.92,0,0,1,4.85,4.69,14.79,14.79,0,0,1,1.81,7.75,14.27,14.27,0,0,1-3.1,9,20.35,20.35,0,0,1-8.93,6.25A39.31,39.31,0,0,1,706.73,233Z"/><path class="cls-1" d="M775.07,232.15l-20-55.54h15.17l16.63,47.8h-7.34l17.35-47.8h13.73l16.73,47.8h-7l17-47.8h14.25l-20.13,55.54H816l-14.87-41h4.65l-15.08,41Z"/><path class="cls-1" d="M894.94,233a25.42,25.42,0,0,1-11.05-2.22,17.27,17.27,0,0,1-7.17-6,15.15,15.15,0,0,1-2.53-8.57,14.59,14.59,0,0,1,10.12-14.45q5.27-2.07,13.83-2.07H912.8v9.29h-13q-5.67,0-7.79,1.86a5.94,5.94,0,0,0-2.12,4.65,5.78,5.78,0,0,0,2.43,4.9,10.67,10.67,0,0,0,6.55,1.81,14.62,14.62,0,0,0,7.39-1.86,10.19,10.19,0,0,0,4.59-5.68l2.48,7.54a14.64,14.64,0,0,1-6.4,8Q902.27,233,894.94,233Zm16.93-.83V221.31l-1-2.37V199.53a10.37,10.37,0,0,0-3.15-8.05q-3.15-2.89-9.65-2.9a28.07,28.07,0,0,0-8.73,1.4,24.43,24.43,0,0,0-7.38,3.77l-5.68-11.26a32.67,32.67,0,0,1,11-5,50.13,50.13,0,0,1,13-1.71q12.69,0,19.72,6t7,18.69v31.69Z"/><path class="cls-1" d="M962.15,252.18V176.61h15.38V188l-.31,16.52,1,16.42v31.28ZM994.88,233a23.59,23.59,0,0,1-12.19-3.1,20.59,20.59,0,0,1-8.2-9.45q-2.94-6.35-3-16.05t2.79-16.11a19.69,19.69,0,0,1,8.11-9.39,24.2,24.2,0,0,1,12.44-3.1,28.16,28.16,0,0,1,14.19,3.56,26.22,26.22,0,0,1,9.91,10,32.9,32.9,0,0,1,0,30.2,26.34,26.34,0,0,1-9.91,9.91A28.16,28.16,0,0,1,994.88,233Zm-2.69-13.22a13.93,13.93,0,0,0,7.18-1.85,13.74,13.74,0,0,0,5.06-5.32,18.71,18.71,0,0,0,0-16.47,13.43,13.43,0,0,0-5.06-5.21,14.11,14.11,0,0,0-7.18-1.81,14.36,14.36,0,0,0-7.22,1.81,13.21,13.21,0,0,0-5.11,5.21,18.71,18.71,0,0,0,0,16.47,13.51,13.51,0,0,0,5.11,5.32A14.19,14.19,0,0,0,992.19,219.76Z"/><polygon class="cls-2" points="391.89 104.06 321.72 67.55 321.68 67.55 251.54 104.02 251.54 104.06 321.72 140.53 391.89 177.01 391.93 177.01 462.07 140.53 391.89 104.06"/><polygon class="cls-3" points="321.71 213.53 321.71 286.52 321.67 286.52 251.53 322.94 251.53 249.99 321.71 213.53"/><polygon class="cls-4" points="462.08 140.53 462.08 359.44 462.04 359.44 391.89 395.94 321.71 432.43 321.67 432.43 251.53 468.93 251.53 395.94 321.71 359.44 391.89 322.98 391.89 176.99 391.93 176.99 462.08 140.53"/><polygon class="cls-2" points="391.89 322.98 321.71 359.44 251.53 395.94 251.53 395.97 181.3 359.44 251.53 322.98 251.53 322.94 321.67 286.52 321.71 286.52 391.89 322.98"/><polygon class="cls-3" points="181.36 286.51 181.32 286.51 111.14 322.98 181.32 359.46 251.54 322.98 181.36 286.51"/><polygon class="cls-4" points="181.32 286.47 181.32 286.51 111.14 322.98 111.14 249.99 181.32 286.47"/><polygon class="cls-4" points="251.54 31.07 181.36 67.55 181.32 67.55 181.32 67.58 111.14 104.06 181.32 140.53 251.54 104.02 321.68 67.55 251.54 31.07"/><polygon class="cls-2" points="251.54 177.04 251.54 177.01 181.32 140.53 111.14 104.06 40.97 140.53 111.1 177.01 111.14 177.01 111.14 177.04 181.32 213.52 251.54 250.03 251.54 249.99 321.72 213.52 251.54 177.04"/><polygon class="cls-5" points="251.53 104.08 251.53 104.04 181.3 140.53 251.53 176.99 251.53 177.03 321.71 213.53 321.71 286.48 321.71 286.52 391.89 322.98 391.89 249.99 391.89 176.99 251.53 104.08"/><polygon class="cls-5" points="181.3 213.53 111.12 177.05 111.12 177.01 111.08 177.01 40.95 140.54 40.95 213.49 40.95 213.53 40.95 286.48 40.95 286.51 40.95 359.46 40.99 359.46 111.12 395.94 181.3 432.41 181.3 432.45 181.34 432.45 251.52 468.92 251.52 395.97 181.3 359.46 111.12 322.99 111.12 250 181.3 286.48 181.34 286.51 251.52 322.99 251.52 322.95 251.52 250.04 181.3 213.53"/><polygon class="cls-5" points="181.32 286.47 111.14 249.99 174.49 290.06 181.32 286.47"/><rect class="cls-6" x="28.79" y="27.28" width="445.44" height="445.44"/><path class="cls-1" d="M251.51,472.82l-72.22-37.54c-4.76-2.49-47-24.46-69.77-36.26l-72-37.43V138.41L179.73,64.52l0,.06c2.7-1.5,14.47-7.62,70.17-36.58l1.59-.82,71.75,37.29-.08.14c3.56,1.65,16.59,8.43,70.27,36.37l72.06,37.43V362.9h-2.62C457,366,415.76,387.4,393.45,399l-70.9,36.85c-5.92,3.06-47.14,24.51-69.45,36.13ZM183,429.4,251.51,465c52.34-27.25,65.16-33.92,68.68-35.55l-.08-.14,70.15-36.47c46.71-24.3,62.65-32.6,68.34-35.43V142.61l-68.34-35.5C368,95.5,326.74,74.05,320.82,71h0L251.51,35c-23,12-63.48,33-68.12,35.44l-.48.25-138.49,72V357.39l68.29,35.49c55.75,29,67.52,35.08,70.21,36.58Z"/><path class="cls-1" d="M513.36,348V275.69h25.91a38.33,38.33,0,0,1,15.59,2.89,22.37,22.37,0,0,1,10,8.32,26.14,26.14,0,0,1,0,26.17,22.26,22.26,0,0,1-10,8.36,38.16,38.16,0,0,1-15.59,2.89h-23l2.37-2.48V348Zm5.26-25.81-2.37-2.58h23q11.67,0,17.71-5.11t6-14.4q0-9.39-6-14.51t-17.71-5.11h-23l2.37-2.58Z"/><path class="cls-1" d="M593.16,348V294.07h5v14.76l-.52-1.65a19.11,19.11,0,0,1,7.64-10q5.37-3.51,13.42-3.51v5.06a4.18,4.18,0,0,1-.61-.05,3.34,3.34,0,0,0-.62-.06q-9,0-14,5.63t-5.06,15.64V348Z"/><path class="cls-1" d="M663.78,348.38A26.93,26.93,0,0,1,650,344.87a25.94,25.94,0,0,1-9.6-9.71,30,30,0,0,1,0-28.34,26.07,26.07,0,0,1,9.6-9.65,26.93,26.93,0,0,1,13.78-3.51,27.25,27.25,0,0,1,13.84,3.51,25.63,25.63,0,0,1,9.6,9.65,30.36,30.36,0,0,1,0,28.34,25.51,25.51,0,0,1-9.6,9.71A27.25,27.25,0,0,1,663.78,348.38Zm0-4.65a21.94,21.94,0,0,0,11.15-2.84,19.9,19.9,0,0,0,7.75-8,26.86,26.86,0,0,0,0-23.8,20.09,20.09,0,0,0-7.75-7.95,22,22,0,0,0-11.15-2.84,21.78,21.78,0,0,0-11.1,2.84,20.54,20.54,0,0,0-7.74,7.95,26.35,26.35,0,0,0,0,23.8,20.34,20.34,0,0,0,7.74,8A21.68,21.68,0,0,0,663.78,343.73Z"/><path class="cls-1" d="M708.18,298.51v-4.44h32.21v4.44Zm24.57,49.87q-7.12,0-10.9-3.93t-3.76-10.73V282.3h5.16v50.9q0,5.16,2.58,7.95t7.43,2.79a12,12,0,0,0,8.37-3l2.16,3.62a12.74,12.74,0,0,1-5,2.89A19.94,19.94,0,0,1,732.75,348.38Z"/><path class="cls-1" d="M787.57,348.38a26.9,26.9,0,0,1-13.78-3.51,25.94,25.94,0,0,1-9.6-9.71,29.91,29.91,0,0,1,0-28.34,26.07,26.07,0,0,1,9.6-9.65,26.9,26.9,0,0,1,13.78-3.51,27.19,27.19,0,0,1,13.83,3.51,25.73,25.73,0,0,1,9.61,9.65,30.36,30.36,0,0,1,0,28.34,25.6,25.6,0,0,1-9.61,9.71A27.19,27.19,0,0,1,787.57,348.38Zm0-4.65a21.94,21.94,0,0,0,11.15-2.84,19.94,19.94,0,0,0,7.74-8,26.77,26.77,0,0,0,0-23.8,20.14,20.14,0,0,0-7.74-7.95,22,22,0,0,0-11.15-2.84,21.78,21.78,0,0,0-11.1,2.84,20.54,20.54,0,0,0-7.74,7.95,26.35,26.35,0,0,0,0,23.8,20.34,20.34,0,0,0,7.74,8A21.68,21.68,0,0,0,787.57,343.73Z"/><path class="cls-1" d="M862.21,348.38a27.71,27.71,0,0,1-14-3.51,25.76,25.76,0,0,1-9.7-9.71,30.08,30.08,0,0,1,0-28.39,25.33,25.33,0,0,1,9.7-9.65,28,28,0,0,1,14-3.46A27.49,27.49,0,0,1,874,296.14a20.66,20.66,0,0,1,8.62,7.43l-3.81,2.79a17.49,17.49,0,0,0-7.23-6.09,23.68,23.68,0,0,0-20.7.87,20.34,20.34,0,0,0-7.85,7.95,26.46,26.46,0,0,0,0,23.85,20.21,20.21,0,0,0,7.85,7.95,23.73,23.73,0,0,0,20.7.88,17.64,17.64,0,0,0,7.23-6.09l3.81,2.78A20.61,20.61,0,0,1,874,345.9,27.64,27.64,0,0,1,862.21,348.38Z"/><path class="cls-1" d="M928.6,348.38a26.9,26.9,0,0,1-13.78-3.51,26,26,0,0,1-9.61-9.71,30,30,0,0,1,0-28.34,26.17,26.17,0,0,1,9.61-9.65,26.9,26.9,0,0,1,13.78-3.51,27.19,27.19,0,0,1,13.83,3.51,25.63,25.63,0,0,1,9.6,9.65,30.36,30.36,0,0,1,0,28.34,25.51,25.51,0,0,1-9.6,9.71A27.19,27.19,0,0,1,928.6,348.38Zm0-4.65a22,22,0,0,0,11.15-2.84,19.94,19.94,0,0,0,7.74-8,26.77,26.77,0,0,0,0-23.8,20.14,20.14,0,0,0-7.74-7.95,22.07,22.07,0,0,0-11.15-2.84,21.78,21.78,0,0,0-11.1,2.84,20.54,20.54,0,0,0-7.74,7.95,26.35,26.35,0,0,0,0,23.8,20.34,20.34,0,0,0,7.74,8A21.68,21.68,0,0,0,928.6,343.73Z"/><path class="cls-1" d="M981.87,348v-76.6H987V348Z"/><rect class="cls-6" width="1072.31" height="500"/></g></g></svg>