<svg width="104" height="30" viewBox="0 0 104 30" fill="none" xmlns="http://www.w3.org/2000/svg">
<path d="M29.8285 20H27.3569L31.1229 9.09091H34.0952L37.8558 20H35.3842L32.6516 11.5838H32.5664L29.8285 20ZM29.674 15.712H35.5121V17.5124H29.674V15.712ZM39.1702 20V11.8182H41.4394V20H39.1702ZM40.3101 10.7635C39.9727 10.7635 39.6833 10.6516 39.4419 10.4279C39.2039 10.2006 39.085 9.92898 39.085 9.61293C39.085 9.30043 39.2039 9.03232 39.4419 8.80859C39.6833 8.58132 39.9727 8.46768 40.3101 8.46768C40.6475 8.46768 40.9351 8.58132 41.173 8.80859C41.4145 9.03232 41.5352 9.30043 41.5352 9.61293C41.5352 9.92898 41.4145 10.2006 41.173 10.4279C40.9351 10.6516 40.6475 10.7635 40.3101 10.7635ZM43.2571 20V11.8182H45.457V13.2457H45.5423C45.6914 12.7379 45.9418 12.3544 46.2933 12.0952C46.6449 11.8324 47.0497 11.701 47.5078 11.701C47.6214 11.701 47.744 11.7081 47.8754 11.7223C48.0067 11.7365 48.1222 11.756 48.2216 11.7809V13.7944C48.1151 13.7624 47.9677 13.734 47.7795 13.7092C47.5913 13.6843 47.419 13.6719 47.2628 13.6719C46.929 13.6719 46.6307 13.7447 46.3679 13.8903C46.1087 14.0323 45.9027 14.2312 45.75 14.4869C45.6009 14.7425 45.5263 15.0373 45.5263 15.3711V20H43.2571ZM52.0289 20.1332C51.4074 20.1332 50.8445 19.9734 50.3403 19.6538C49.8396 19.3306 49.4419 18.8565 49.1471 18.2315C48.8559 17.603 48.7103 16.8324 48.7103 15.9197C48.7103 14.9822 48.8612 14.2028 49.1631 13.5813C49.4649 12.9563 49.8662 12.4893 50.3669 12.1804C50.8712 11.8679 51.4234 11.7116 52.0235 11.7116C52.4816 11.7116 52.8634 11.7898 53.1688 11.946C53.4777 12.0987 53.7263 12.2905 53.9145 12.5213C54.1063 12.7486 54.2519 12.9723 54.3513 13.1925H54.4205V9.09091H56.6844V20H54.4472V18.6896H54.3513C54.2448 18.9169 54.0938 19.1424 53.8985 19.3661C53.7068 19.5863 53.4564 19.7692 53.1475 19.9148C52.8421 20.0604 52.4692 20.1332 52.0289 20.1332ZM52.748 18.3274C53.1137 18.3274 53.4227 18.228 53.6748 18.0291C53.9305 17.8267 54.1258 17.5444 54.2607 17.1822C54.3992 16.82 54.4685 16.3956 54.4685 15.9091C54.4685 15.4226 54.401 15 54.2661 14.6413C54.1311 14.2827 53.9358 14.0057 53.6801 13.8104C53.4244 13.6151 53.1137 13.5174 52.748 13.5174C52.3751 13.5174 52.0608 13.6186 51.8051 13.821C51.5494 14.0234 51.3559 14.304 51.2245 14.6626C51.0931 15.0213 51.0274 15.4368 51.0274 15.9091C51.0274 16.3849 51.0931 16.8058 51.2245 17.1715C51.3595 17.5337 51.553 17.8178 51.8051 18.0238C52.0608 18.2262 52.3751 18.3274 52.748 18.3274ZM58.5501 20V11.8182H60.75V13.2457H60.8352C60.9844 12.7379 61.2347 12.3544 61.5863 12.0952C61.9379 11.8324 62.3427 11.701 62.8008 11.701C62.9144 11.701 63.0369 11.7081 63.1683 11.7223C63.2997 11.7365 63.4151 11.756 63.5146 11.7809V13.7944C63.408 13.7624 63.2607 13.734 63.0724 13.7092C62.8842 13.6843 62.712 13.6719 62.5558 13.6719C62.2219 13.6719 61.9237 13.7447 61.6609 13.8903C61.4016 14.0323 61.1957 14.2312 61.043 14.4869C60.8938 14.7425 60.8192 15.0373 60.8192 15.3711V20H58.5501ZM68.0036 20.1598C67.1762 20.1598 66.4607 19.984 65.857 19.6325C65.2568 19.2773 64.7934 18.7837 64.4667 18.1516C64.14 17.516 63.9767 16.7791 63.9767 15.9411C63.9767 15.0959 64.14 14.3572 64.4667 13.7251C64.7934 13.0895 65.2568 12.5959 65.857 12.2443C66.4607 11.8892 67.1762 11.7116 68.0036 11.7116C68.8311 11.7116 69.5448 11.8892 70.145 12.2443C70.7487 12.5959 71.2139 13.0895 71.5406 13.7251C71.8673 14.3572 72.0306 15.0959 72.0306 15.9411C72.0306 16.7791 71.8673 17.516 71.5406 18.1516C71.2139 18.7837 70.7487 19.2773 70.145 19.6325C69.5448 19.984 68.8311 20.1598 68.0036 20.1598ZM68.0143 18.402C68.3907 18.402 68.705 18.2955 68.9571 18.0824C69.2093 17.8658 69.3992 17.571 69.5271 17.1982C69.6585 16.8253 69.7242 16.4009 69.7242 15.9251C69.7242 15.4492 69.6585 15.0249 69.5271 14.652C69.3992 14.2791 69.2093 13.9844 68.9571 13.7678C68.705 13.5511 68.3907 13.4428 68.0143 13.4428C67.6343 13.4428 67.3147 13.5511 67.0555 13.7678C66.7998 13.9844 66.6063 14.2791 66.4749 14.652C66.347 15.0249 66.2831 15.4492 66.2831 15.9251C66.2831 16.4009 66.347 16.8253 66.4749 17.1982C66.6063 17.571 66.7998 17.8658 67.0555 18.0824C67.3147 18.2955 67.6343 18.402 68.0143 18.402ZM73.5061 23.0682V11.8182H75.7433V13.1925H75.8445C75.944 12.9723 76.0878 12.7486 76.276 12.5213C76.4678 12.2905 76.7164 12.0987 77.0218 11.946C77.3307 11.7898 77.7142 11.7116 78.1723 11.7116C78.7689 11.7116 79.3193 11.8679 79.8236 12.1804C80.3279 12.4893 80.7309 12.9563 81.0328 13.5813C81.3346 14.2028 81.4855 14.9822 81.4855 15.9197C81.4855 16.8324 81.3382 17.603 81.0434 18.2315C80.7522 18.8565 80.3545 19.3306 79.8502 19.6538C79.3495 19.9734 78.7884 20.1332 78.167 20.1332C77.7267 20.1332 77.352 20.0604 77.0431 19.9148C76.7377 19.7692 76.4873 19.5863 76.292 19.3661C76.0967 19.1424 75.9475 18.9169 75.8445 18.6896H75.7753V23.0682H73.5061ZM75.7274 15.9091C75.7274 16.3956 75.7948 16.82 75.9298 17.1822C76.0647 17.5444 76.26 17.8267 76.5157 18.0291C76.7714 18.228 77.0821 18.3274 77.4479 18.3274C77.8172 18.3274 78.1297 18.2262 78.3854 18.0238C78.6411 17.8178 78.8346 17.5337 78.966 17.1715C79.1009 16.8058 79.1684 16.3849 79.1684 15.9091C79.1684 15.4368 79.1027 15.0213 78.9713 14.6626C78.8399 14.304 78.6464 14.0234 78.3907 13.821C78.135 13.6186 77.8208 13.5174 77.4479 13.5174C77.0786 13.5174 76.7661 13.6151 76.5104 13.8104C76.2583 14.0057 76.0647 14.2827 75.9298 14.6413C75.7948 15 75.7274 15.4226 75.7274 15.9091Z" fill="url(#paint0_linear_88_2)"/>
<rect x="0.5" y="0.5" width="103" height="29" rx="14.5" stroke="url(#paint1_linear_88_2)"/>
<defs>
<linearGradient id="paint0_linear_88_2" x1="55" y1="6" x2="55" y2="24" gradientUnits="userSpaceOnUse">
<stop stop-color="#1400FF"/>
<stop offset="0.479167" stop-color="#B500F4"/>
<stop offset="0.9999" stop-color="#E3CF18"/>
<stop offset="1" stop-color="#F70000"/>
</linearGradient>
<linearGradient id="paint1_linear_88_2" x1="52" y1="0" x2="52" y2="30" gradientUnits="userSpaceOnUse">
<stop stop-color="#1400FF"/>
<stop offset="0.479167" stop-color="#B500F4"/>
<stop offset="0.9999" stop-color="#E3CF18"/>
<stop offset="1" stop-color="#F70000"/>
</linearGradient>
</defs>
</svg>
