<svg width="104" height="30" viewBox="0 0 104 30" fill="none" xmlns="http://www.w3.org/2000/svg">
<path d="M28.7685 20H27.3835L31.3892 9.09091H32.7528L36.7585 20H35.3736L32.1136 10.8168H32.0284L28.7685 20ZM29.2798 15.7386H34.8622V16.9105H29.2798V15.7386ZM38.3752 20V11.8182H39.6323V20H38.3752ZM39.0144 10.4545C38.7694 10.4545 38.5581 10.3711 38.3805 10.2042C38.2065 10.0373 38.1195 9.83665 38.1195 9.60227C38.1195 9.3679 38.2065 9.16726 38.3805 9.00035C38.5581 8.83345 38.7694 8.75 39.0144 8.75C39.2594 8.75 39.4689 8.83345 39.6429 9.00035C39.8205 9.16726 39.9093 9.3679 39.9093 9.60227C39.9093 9.83665 39.8205 10.0373 39.6429 10.2042C39.4689 10.3711 39.2594 10.4545 39.0144 10.4545ZM41.9347 20V11.8182H43.1492V13.054H43.2345C43.3836 12.6491 43.6535 12.3207 44.0441 12.0685C44.4347 11.8164 44.8751 11.6903 45.3651 11.6903C45.4575 11.6903 45.5729 11.6921 45.7114 11.6957C45.8499 11.6992 45.9546 11.7045 46.0257 11.7116V12.9901C45.983 12.9794 45.8854 12.9634 45.7327 12.9421C45.5835 12.9173 45.4255 12.9048 45.2586 12.9048C44.8609 12.9048 44.5058 12.9883 44.1933 13.1552C43.8843 13.3185 43.6393 13.5458 43.4582 13.837C43.2806 14.1246 43.1919 14.4531 43.1919 14.8224V20H41.9347ZM50.3563 20.1705C49.6744 20.1705 49.0725 19.9982 48.5505 19.6538C48.0285 19.3058 47.6201 18.8157 47.3254 18.1836C47.0306 17.5479 46.8833 16.7969 46.8833 15.9304C46.8833 15.071 47.0306 14.3253 47.3254 13.6932C47.6201 13.0611 48.0303 12.5728 48.5558 12.2283C49.0814 11.8839 49.6887 11.7116 50.3776 11.7116C50.9102 11.7116 51.3311 11.8004 51.64 11.978C51.9525 12.152 52.1904 12.3509 52.3538 12.5746C52.5207 12.7947 52.6503 12.9759 52.7426 13.1179H52.8492V9.09091H54.1063V20H52.8918V18.7429H52.7426C52.6503 18.892 52.5189 19.0803 52.3485 19.3075C52.178 19.5312 51.9347 19.7319 51.6187 19.9094C51.3026 20.0835 50.8818 20.1705 50.3563 20.1705ZM50.5267 19.0412C51.031 19.0412 51.4571 18.9098 51.8051 18.647C52.1531 18.3807 52.4177 18.0131 52.5988 17.5444C52.7799 17.0721 52.8705 16.527 52.8705 15.9091C52.8705 15.2983 52.7817 14.7638 52.6041 14.3058C52.4266 13.8441 52.1638 13.4854 51.8158 13.2298C51.4678 12.9705 51.0381 12.8409 50.5267 12.8409C49.9941 12.8409 49.5502 12.9776 49.195 13.2511C48.8435 13.521 48.5789 13.8885 48.4014 14.3537C48.2274 14.8153 48.1404 15.3338 48.1404 15.9091C48.1404 16.4915 48.2291 17.0206 48.4067 17.4964C48.5878 17.9687 48.8541 18.3452 49.2057 18.6257C49.5608 18.9027 50.0012 19.0412 50.5267 19.0412ZM56.5832 20V11.8182H57.7977V13.054H57.8829C58.032 12.6491 58.3019 12.3207 58.6926 12.0685C59.0832 11.8164 59.5235 11.6903 60.0136 11.6903C60.1059 11.6903 60.2213 11.6921 60.3598 11.6957C60.4983 11.6992 60.6031 11.7045 60.6741 11.7116V12.9901C60.6315 12.9794 60.5338 12.9634 60.3811 12.9421C60.232 12.9173 60.074 12.9048 59.907 12.9048C59.5093 12.9048 59.1542 12.9883 58.8417 13.1552C58.5328 13.3185 58.2877 13.5458 58.1066 13.837C57.9291 14.1246 57.8403 14.4531 57.8403 14.8224V20H56.5832ZM65.2391 20.1705C64.5004 20.1705 63.8524 19.9947 63.2948 19.6431C62.7409 19.2915 62.3076 18.7997 61.9951 18.1676C61.6862 17.5355 61.5317 16.7969 61.5317 15.9517C61.5317 15.0994 61.6862 14.3555 61.9951 13.7198C62.3076 13.0842 62.7409 12.5906 63.2948 12.239C63.8524 11.8874 64.5004 11.7116 65.2391 11.7116C65.9777 11.7116 66.624 11.8874 67.178 12.239C67.7355 12.5906 68.1688 13.0842 68.4777 13.7198C68.7902 14.3555 68.9465 15.0994 68.9465 15.9517C68.9465 16.7969 68.7902 17.5355 68.4777 18.1676C68.1688 18.7997 67.7355 19.2915 67.178 19.6431C66.624 19.9947 65.9777 20.1705 65.2391 20.1705ZM65.2391 19.0412C65.8002 19.0412 66.2618 18.8974 66.624 18.6097C66.9862 18.3221 67.2544 17.9439 67.4284 17.4751C67.6024 17.0064 67.6894 16.4986 67.6894 15.9517C67.6894 15.4048 67.6024 14.8952 67.4284 14.4229C67.2544 13.9506 66.9862 13.5689 66.624 13.2777C66.2618 12.9865 65.8002 12.8409 65.2391 12.8409C64.678 12.8409 64.2164 12.9865 63.8541 13.2777C63.4919 13.5689 63.2238 13.9506 63.0498 14.4229C62.8758 14.8952 62.7888 15.4048 62.7888 15.9517C62.7888 16.4986 62.8758 17.0064 63.0498 17.4751C63.2238 17.9439 63.4919 18.3221 63.8541 18.6097C64.2164 18.8974 64.678 19.0412 65.2391 19.0412ZM70.8654 23.0682V11.8182H72.0799V13.1179H72.229C72.3214 12.9759 72.4492 12.7947 72.6126 12.5746C72.7795 12.3509 73.0174 12.152 73.3263 11.978C73.6388 11.8004 74.0614 11.7116 74.5941 11.7116C75.283 11.7116 75.8903 11.8839 76.4158 12.2283C76.9414 12.5728 77.3516 13.0611 77.6463 13.6932C77.9411 14.3253 78.0884 15.071 78.0884 15.9304C78.0884 16.7969 77.9411 17.5479 77.6463 18.1836C77.3516 18.8157 76.9432 19.3058 76.4212 19.6538C75.8991 19.9982 75.2972 20.1705 74.6154 20.1705C74.0898 20.1705 73.669 20.0835 73.353 19.9094C73.0369 19.7319 72.7937 19.5312 72.6232 19.3075C72.4528 19.0803 72.3214 18.892 72.229 18.7429H72.1225V23.0682H70.8654ZM72.1012 15.9091C72.1012 16.527 72.1918 17.0721 72.3729 17.5444C72.554 18.0131 72.8185 18.3807 73.1665 18.647C73.5146 18.9098 73.9407 19.0412 74.445 19.0412C74.9705 19.0412 75.4091 18.9027 75.7607 18.6257C76.1158 18.3452 76.3821 17.9687 76.5597 17.4964C76.7408 17.0206 76.8313 16.4915 76.8313 15.9091C76.8313 15.3338 76.7425 14.8153 76.565 14.3537C76.391 13.8885 76.1264 13.521 75.7713 13.2511C75.4197 12.9776 74.9776 12.8409 74.445 12.8409C73.9336 12.8409 73.5039 12.9705 73.1559 13.2298C72.8079 13.4854 72.5451 13.8441 72.3675 14.3058C72.19 14.7638 72.1012 15.2983 72.1012 15.9091Z" fill="url(#paint0_linear_88_2)"/>
<rect x="0.5" y="0.5" width="103" height="29" rx="14.5" stroke="url(#paint1_linear_88_2)"/>
<defs>
<linearGradient id="paint0_linear_88_2" x1="53" y1="6" x2="53" y2="24" gradientUnits="userSpaceOnUse">
<stop stop-color="#1400FF"/>
<stop offset="0.479167" stop-color="#B500F4"/>
<stop offset="0.9999" stop-color="#E3CF18"/>
<stop offset="1" stop-color="#F70000"/>
</linearGradient>
<linearGradient id="paint1_linear_88_2" x1="52" y1="0" x2="52" y2="30" gradientUnits="userSpaceOnUse">
<stop stop-color="#1400FF"/>
<stop offset="0.479167" stop-color="#B500F4"/>
<stop offset="0.9999" stop-color="#E3CF18"/>
<stop offset="1" stop-color="#F70000"/>
</linearGradient>
</defs>
</svg>
