<svg width="81" height="81" viewBox="0 0 81 81" fill="none" xmlns="http://www.w3.org/2000/svg">
<path d="M76.6667 53.865L42.0392 32.6835L46.2917 26.487C46.2917 26.487 49.0862 28.1475 52.0022 23.895C54.9182 19.6425 52.2452 17.7795 52.2452 17.7795L29.6057 2.55149C29.6057 2.55149 26.8112 0.809994 23.8952 4.98149C20.9792 9.23399 23.6522 11.259 23.6522 11.259L9.03166 32.562C9.03166 32.562 6.23716 30.78 3.36166 34.911C0.445657 39.0825 3.11866 41.1885 3.11866 41.1885L25.7582 56.376C25.7582 56.376 28.5527 57.9555 31.4687 53.703C34.3847 49.4505 31.7117 47.6685 31.7117 47.6685L35.9642 41.472L68.7287 64.962C71.0777 66.5415 75.3302 66.1365 77.4361 63.018C79.5826 59.9805 79.0157 55.404 76.6667 53.865ZM75.2492 61.155C74.0747 62.8965 71.8067 63.585 69.6602 62.1675L35.1947 37.341L27.4997 48.438L28.3502 49.005C29.4437 49.734 29.6867 51.1515 28.9577 52.1235C28.2287 53.136 26.8112 53.541 25.7582 52.731L6.80416 40.176C5.71066 39.447 5.38666 37.989 6.19666 36.855C6.92566 35.8425 8.38366 35.5995 9.39616 36.288L9.80116 36.531L27.8237 10.449L27.0542 9.88199C25.9607 9.15299 25.7177 7.69499 26.4467 6.56099C27.1757 5.54849 28.6337 5.30549 29.6462 5.99399L48.5597 18.63C49.6532 19.359 49.8962 20.7765 49.1672 21.7485C48.4382 22.761 46.9802 23.166 45.9677 22.4775L45.5627 22.2345L37.9487 33.3315L74.1557 55.566C76.4237 57.2265 76.3832 59.4135 75.2492 61.155ZM49.5722 75.978H7.61416V75.9375H4.61716V78.9345H52.4477V75.9375L49.5722 75.978ZM9.92266 69.6195V72.6165H47.1827V69.6195H44.9147V69.66H12.2717V69.6195H9.92266Z" fill="#00D5DA"/>
</svg>
