<svg width="81" height="81" viewBox="0 0 81 81" fill="none" xmlns="http://www.w3.org/2000/svg">
<path d="M41.9318 75.7713C39.4164 75.7713 36.8931 74.8142 34.9709 72.892L34.9234 72.8445L6.17793 44.1228C5.58467 43.5295 5.25244 42.7306 5.25244 41.8921V8.37676C5.25244 6.63652 6.66045 5.22852 8.40068 5.22852H41.916C42.7466 5.22852 43.5534 5.56074 44.1388 6.154L72.9317 34.947C76.6495 38.7755 76.6732 44.8268 73.0108 48.766L72.9317 48.8451L48.9086 72.8841C46.9864 74.8063 44.4631 75.7713 41.9318 75.7713ZM39.456 68.4702C40.8481 69.8229 43.0788 69.8149 44.4552 68.4386L68.4467 44.4471C69.7677 42.9916 69.7756 40.7214 68.4625 39.3688L40.6188 11.525H11.5489V40.5948L39.4164 68.4307L39.456 68.4702Z" fill="#00D5DA"/>
<path d="M21.8164 28.4924C21.8164 29.3722 21.9897 30.2435 22.3264 31.0563C22.6631 31.8692 23.1566 32.6078 23.7788 33.2299C24.4009 33.8521 25.1395 34.3456 25.9524 34.6823C26.7652 35.019 27.6365 35.1923 28.5163 35.1923C29.3962 35.1923 30.2674 35.019 31.0803 34.6823C31.8931 34.3456 32.6317 33.8521 33.2539 33.2299C33.876 32.6078 34.3695 31.8692 34.7062 31.0563C35.0429 30.2435 35.2162 29.3722 35.2162 28.4924C35.2162 27.6125 35.0429 26.7413 34.7062 25.9284C34.3695 25.1156 33.876 24.377 33.2539 23.7548C32.6317 23.1327 31.8931 22.6392 31.0803 22.3025C30.2674 21.9658 29.3962 21.7925 28.5163 21.7925C27.6365 21.7925 26.7652 21.9658 25.9524 22.3025C25.1395 22.6392 24.4009 23.1327 23.7788 23.7548C23.1566 24.377 22.6631 25.1156 22.3264 25.9284C21.9897 26.7413 21.8164 27.6125 21.8164 28.4924Z" fill="#00D5DA"/>
</svg>
