<svg width="81" height="81" viewBox="0 0 81 81" fill="none" xmlns="http://www.w3.org/2000/svg">
<path d="M40.581 2.06543C37.908 2.06543 35.2755 2.34893 32.6835 2.87543C30.942 3.23993 29.808 4.94093 30.1725 6.72293C30.537 8.46443 32.238 9.59843 34.02 9.23393C36.1665 8.78843 38.394 8.54543 40.581 8.54543C58.239 8.54543 72.576 22.8824 72.576 40.5404C72.576 58.1984 58.239 72.5354 40.581 72.5354C22.923 72.5354 8.58596 58.1984 8.58596 40.5404C8.58596 34.1414 10.4895 27.9449 14.0535 22.6394C15.1065 21.0599 16.3215 19.6019 17.658 18.2249C18.9135 16.9289 18.873 14.9039 17.577 13.6484C16.281 12.3929 14.256 12.4334 13.0005 13.7294C11.421 15.3494 9.96296 17.1314 8.66696 19.0349C4.37396 25.3934 2.10596 32.8454 2.10596 40.5404C2.10596 61.7624 19.359 79.0154 40.581 79.0154C61.803 79.0154 79.056 61.7624 79.056 40.5404C79.056 19.3184 61.803 2.06543 40.581 2.06543Z" fill="#00D5DA"/>
<path d="M17.253 35.1945C17.253 36.9765 18.711 38.4345 20.493 38.4345H60.7095C62.0055 38.4345 63.2205 37.665 63.7065 36.45C64.1925 35.235 63.9495 33.858 63.018 32.9265L52.569 22.4775C51.3135 21.222 49.248 21.222 47.9925 22.4775C46.737 23.733 46.737 25.7985 47.9925 27.054L52.9335 31.995H20.5335C18.711 31.9545 17.253 33.4125 17.253 35.1945ZM63.9495 45.927C63.9495 44.145 62.4915 42.687 60.7095 42.687H20.493C19.197 42.687 17.982 43.4565 17.496 44.6715C17.01 45.8865 17.253 47.2635 18.1845 48.195L28.6335 58.644C29.2815 59.292 30.0915 59.5755 30.942 59.5755C31.7925 59.5755 32.6025 59.2515 33.2505 58.644C34.506 57.3885 34.506 55.323 33.2505 54.0675L28.3095 49.1265H60.7095C62.4915 49.167 63.9495 47.709 63.9495 45.927Z" fill="#00D5DA"/>
</svg>
