<svg width="81" height="81" viewBox="0 0 81 81" fill="none" xmlns="http://www.w3.org/2000/svg">
<path d="M59.8696 3.1696H43.3175C42.6131 3.1696 42.1436 2.70004 42.1436 1.99569C42.1436 1.29134 42.6131 0.821777 43.3175 0.821777H59.8696C60.574 0.821777 61.0436 1.29134 61.0436 1.99569C61.0436 2.70004 60.574 3.1696 59.8696 3.1696Z" fill="#00D5DA"/>
<path d="M52.8263 1.99561H50.4785V13.0304H52.8263V1.99561Z" fill="#00D5DA"/>
<path d="M27.9396 46.1348H15.4961C13.97 46.1348 12.7961 44.9608 12.7961 43.4347V25.4739C12.7961 19.4869 18.0787 17.3739 20.8961 17.0217H40.97C41.7918 15.3782 44.3744 11.9739 51.6526 11.9739C59.0483 11.9739 62.1005 16.0826 63.0396 17.7261H65.7396C67.2657 17.7261 68.557 19.0174 68.557 20.5434V32.8695C68.557 34.3956 67.2657 35.6869 65.7396 35.6869H62.57C61.2787 36.8608 57.17 40.6174 51.77 40.6174C46.37 40.6174 41.7918 36.8608 40.5005 35.6869H31.4613C31.1091 35.6869 30.8744 35.9217 30.8744 36.2739V43.5521C30.6396 44.8434 29.4657 46.1348 27.9396 46.1348ZM21.0135 19.3695C20.4265 19.4869 15.1439 20.3087 15.1439 25.4739V43.4347C15.1439 43.6695 15.2613 43.7869 15.4961 43.7869H27.9396C28.1744 43.7869 28.2918 43.6695 28.2918 43.4347V36.1565C28.2918 34.513 29.5831 33.2217 31.2265 33.2217H41.2048L41.557 33.5739C41.557 33.5739 46.2526 38.1521 51.5352 38.1521C56.8178 38.1521 60.9265 33.6913 60.9265 33.6913L61.2787 33.3391H65.5048C65.7396 33.3391 65.9744 33.1043 65.9744 32.8695V20.5434C65.9744 20.3087 65.7396 20.0739 65.5048 20.0739H61.2787L61.0439 19.2521C60.9265 19.0174 59.0483 14.2043 51.5352 14.2043C44.1396 14.2043 42.8483 18.313 42.7309 18.4304L42.4961 19.2521H21.0135V19.3695ZM21.9526 79.9435C17.4918 79.9435 12.6787 77.2434 12.6787 69.8478C12.6787 63.0391 20.6613 52.9434 21.0135 52.5913L21.8352 51.5348L22.7744 52.4739C23.1265 52.8261 30.9918 60.8087 31.9309 68.3217C32.4004 71.8434 31.6961 74.7782 29.8178 76.7739C28.1744 78.8869 25.2396 79.9435 21.9526 79.9435ZM22.07 55.0565C20.0744 57.7565 15.0265 65.0348 15.0265 69.8478C15.0265 74.7782 17.4918 77.5956 21.9526 77.5956C23.1265 77.5956 26.1787 77.3608 28.057 75.2478C29.4657 73.7217 29.9352 71.4913 29.5831 68.5565C28.9961 63.2739 24.1831 57.4043 22.07 55.0565Z" fill="#00D5DA"/>
</svg>
