<svg width="104" height="30" viewBox="0 0 104 30" fill="none" xmlns="http://www.w3.org/2000/svg">
<path d="M41.5735 11.9102H39.2404C39.1978 11.6083 39.1108 11.3402 38.9794 11.1058C38.848 10.8679 38.6793 10.6655 38.4734 10.4986C38.2674 10.3317 38.0295 10.2038 37.7596 10.1151C37.4933 10.0263 37.2038 9.98189 36.8913 9.98189C36.3267 9.98189 35.8349 10.1222 35.4158 10.4027C34.9968 10.6797 34.6719 11.0845 34.4411 11.6172C34.2102 12.1463 34.0948 12.7891 34.0948 13.5455C34.0948 14.3232 34.2102 14.9766 34.4411 15.5057C34.6754 16.0348 35.0021 16.4343 35.4212 16.7042C35.8402 16.9741 36.3249 17.109 36.8754 17.109C37.1843 17.109 37.4702 17.0682 37.733 16.9865C37.9993 16.9048 38.2354 16.7859 38.4414 16.6296C38.6474 16.4698 38.8178 16.2763 38.9528 16.049C39.0913 15.8217 39.1871 15.5625 39.2404 15.2713L41.5735 15.282C41.5131 15.7827 41.3622 16.2656 41.1207 16.7308C40.8828 17.1925 40.5614 17.6062 40.1566 17.9719C39.7553 18.3342 39.2759 18.6218 38.7184 18.8349C38.1644 19.0444 37.5376 19.1491 36.8381 19.1491C35.8651 19.1491 34.995 18.929 34.228 18.4886C33.4645 18.0483 32.8608 17.4109 32.4169 16.5763C31.9766 15.7418 31.7564 14.7315 31.7564 13.5455C31.7564 12.3558 31.9801 11.3438 32.4276 10.5092C32.875 9.67472 33.4822 9.03906 34.2493 8.60227C35.0163 8.16193 35.8793 7.94176 36.8381 7.94176C37.4702 7.94176 38.0561 8.03054 38.5959 8.2081C39.1392 8.38565 39.6204 8.64489 40.0394 8.98579C40.4585 9.32315 40.7994 9.73686 41.0621 10.2269C41.3285 10.717 41.4989 11.2781 41.5735 11.9102ZM45.454 8.09091V19H43.1848V8.09091H45.454ZM49.6048 19.1545C49.0828 19.1545 48.6176 19.0639 48.2093 18.8828C47.8009 18.6982 47.4777 18.4265 47.2398 18.0678C47.0054 17.7056 46.8882 17.2546 46.8882 16.7148C46.8882 16.2603 46.9717 15.8786 47.1386 15.5696C47.3055 15.2607 47.5328 15.0121 47.8204 14.8239C48.108 14.6357 48.4347 14.4936 48.8005 14.3977C49.1698 14.3018 49.5569 14.2344 49.9617 14.1953C50.4376 14.1456 50.8211 14.0994 51.1123 14.0568C51.4035 14.0107 51.6148 13.9432 51.7462 13.8544C51.8776 13.7656 51.9433 13.6342 51.9433 13.4602V13.4283C51.9433 13.0909 51.8367 12.8299 51.6237 12.6452C51.4142 12.4606 51.1159 12.3683 50.7288 12.3683C50.3204 12.3683 49.9955 12.4588 49.754 12.6399C49.5125 12.8175 49.3527 13.0412 49.2746 13.3111L47.1759 13.1406C47.2824 12.6435 47.4919 12.2138 47.8044 11.8516C48.1169 11.4858 48.52 11.2053 49.0136 11.0099C49.5107 10.8111 50.086 10.7116 50.7394 10.7116C51.194 10.7116 51.629 10.7649 52.0445 10.8714C52.4635 10.978 52.8346 11.1431 53.1578 11.3668C53.4845 11.5906 53.7419 11.8782 53.9301 12.2298C54.1183 12.5778 54.2124 12.995 54.2124 13.4815V19H52.0605V17.8654H51.9965C51.8651 18.1211 51.6894 18.3466 51.4692 18.5419C51.249 18.7337 50.9845 18.8846 50.6755 18.9947C50.3666 19.1012 50.0097 19.1545 49.6048 19.1545ZM50.2547 17.5884C50.5885 17.5884 50.8833 17.5227 51.1389 17.3913C51.3946 17.2564 51.5953 17.0753 51.7409 16.848C51.8865 16.6207 51.9593 16.3633 51.9593 16.0756V15.2074C51.8882 15.2536 51.7906 15.2962 51.6663 15.3352C51.5455 15.3707 51.4088 15.4045 51.2561 15.4364C51.1034 15.4648 50.9507 15.4915 50.798 15.5163C50.6453 15.5376 50.5068 15.5572 50.3825 15.5749C50.1162 15.614 49.8836 15.6761 49.6847 15.7614C49.4859 15.8466 49.3314 15.962 49.2213 16.1076C49.1112 16.2496 49.0562 16.4272 49.0562 16.6403C49.0562 16.9492 49.1681 17.1854 49.3918 17.3487C49.6191 17.5085 49.9067 17.5884 50.2547 17.5884ZM55.9729 19V10.8182H58.2421V19H55.9729ZM57.1128 9.76349C56.7755 9.76349 56.4861 9.65163 56.2446 9.42791C56.0067 9.20064 55.8877 8.92898 55.8877 8.61293C55.8877 8.30043 56.0067 8.03232 56.2446 7.80859C56.4861 7.58132 56.7755 7.46768 57.1128 7.46768C57.4502 7.46768 57.7378 7.58132 57.9758 7.80859C58.2172 8.03232 58.338 8.30043 58.338 8.61293C58.338 8.92898 58.2172 9.20064 57.9758 9.42791C57.7378 9.65163 57.4502 9.76349 57.1128 9.76349ZM60.0598 19V10.8182H62.2225V12.2617H62.3184C62.4888 11.7823 62.7729 11.4041 63.1706 11.1271C63.5684 10.8501 64.0442 10.7116 64.5982 10.7116C65.1593 10.7116 65.6369 10.8519 66.0311 11.1325C66.4252 11.4094 66.688 11.7859 66.8194 12.2617H66.9047C67.0716 11.793 67.3734 11.4183 67.8102 11.1378C68.2505 10.8537 68.7708 10.7116 69.3709 10.7116C70.1344 10.7116 70.7541 10.9549 71.2299 11.4414C71.7093 11.9244 71.949 12.6097 71.949 13.4975V19H69.6852V13.945C69.6852 13.4904 69.5645 13.1495 69.323 12.9222C69.0815 12.695 68.7797 12.5813 68.4174 12.5813C68.0055 12.5813 67.6841 12.7127 67.4533 12.9755C67.2225 13.2347 67.1071 13.5774 67.1071 14.0036V19H64.9071V13.897C64.9071 13.4957 64.7917 13.1761 64.5609 12.9382C64.3336 12.7003 64.0336 12.5813 63.6607 12.5813C63.4086 12.5813 63.1813 12.6452 62.9789 12.7731C62.78 12.8974 62.622 13.0732 62.5048 13.3004C62.3876 13.5241 62.329 13.7869 62.329 14.0888V19H60.0598Z" fill="url(#paint0_linear_88_2)"/>
<rect x="0.5" y="0.5" width="103" height="29" rx="14.5" stroke="url(#paint1_linear_88_2)"/>
<defs>
<linearGradient id="paint0_linear_88_2" x1="52" y1="5" x2="52" y2="41" gradientUnits="userSpaceOnUse">
<stop stop-color="#1400FF"/>
<stop offset="0.479167" stop-color="#B500F4"/>
<stop offset="0.9999" stop-color="#E3CF18"/>
<stop offset="1" stop-color="#F70000"/>
</linearGradient>
<linearGradient id="paint1_linear_88_2" x1="52" y1="0" x2="52" y2="30" gradientUnits="userSpaceOnUse">
<stop stop-color="#1400FF"/>
<stop offset="0.479167" stop-color="#B500F4"/>
<stop offset="0.9999" stop-color="#E3CF18"/>
<stop offset="1" stop-color="#F70000"/>
</linearGradient>
</defs>
</svg>
