<svg xmlns="http://www.w3.org/2000/svg" viewBox="0 0 120 120"><defs><style>.cls-1{fill:none;}.cls-2{fill:#f6f6f4;}.cls-3{fill:#aeafaa;}.cls-4{fill:#2a2b2d;}.cls-5{fill:#141416;}.cls-6{fill:#fff;}</style></defs><g id="图层_2" data-name="图层 2"><g id="图层_1-2" data-name="图层 1"><rect class="cls-1" width="120" height="120"/><polygon class="cls-2" points="97.8 20.7 78.9 10.87 78.89 10.87 60.01 20.69 60.01 20.7 78.9 30.52 97.8 40.34 97.81 40.34 116.7 30.52 97.8 20.7"/><polygon class="cls-3" points="78.9 50.18 78.9 69.83 78.89 69.83 60 79.64 60 60 78.9 50.18"/><polygon class="cls-4" points="116.7 30.52 116.7 89.47 116.69 89.47 97.8 99.3 78.9 109.12 78.89 109.12 60 118.95 60 99.3 78.9 89.47 97.8 79.65 97.8 40.34 97.81 40.34 116.7 30.52"/><polygon class="cls-2" points="97.8 79.65 78.9 89.47 60 99.3 60 99.31 41.09 89.47 60 79.65 60 79.64 78.89 69.83 78.9 69.83 97.8 79.65"/><polygon class="cls-3" points="41.11 69.83 41.1 69.83 22.2 79.65 41.1 89.47 60.01 79.65 41.11 69.83"/><polygon class="cls-4" points="41.1 69.82 41.1 69.83 22.2 79.65 22.2 60 41.1 69.82"/><polygon class="cls-4" points="60.01 1.05 41.11 10.87 41.1 10.87 41.1 10.88 22.2 20.7 41.1 30.52 60.01 20.69 78.89 10.87 60.01 1.05"/><polygon class="cls-2" points="60.01 40.35 60.01 40.34 41.1 30.52 22.2 20.7 3.31 30.52 22.19 40.34 22.2 40.34 22.2 40.35 41.1 50.18 60.01 60.01 60.01 60 78.9 50.18 60.01 40.35"/><polygon class="cls-5" points="60 20.71 60 20.7 41.09 30.52 60 40.34 60 40.35 78.9 50.18 78.9 69.82 78.9 69.83 97.8 79.65 97.8 60 97.8 40.34 60 20.71"/><polygon class="cls-5" points="41.09 50.18 22.2 40.36 22.2 40.35 22.19 40.35 3.3 30.52 3.3 50.17 3.3 50.18 3.3 69.82 3.3 69.83 3.3 89.47 3.31 89.47 22.2 99.3 41.09 109.12 41.09 109.13 41.1 109.13 60 118.95 60 99.31 41.09 89.47 22.2 79.65 22.2 60 41.09 69.82 41.1 69.83 60 79.65 60 79.64 60 60.01 41.09 50.18"/><polygon class="cls-5" points="41.1 69.82 22.2 60 39.26 70.79 41.1 69.82"/><rect class="cls-1" x="0.03" y="0.03" width="119.94" height="119.94"/><path class="cls-6" d="M60,120,40.55,109.89l-18.78-9.76L2.38,90.05V30L40.67,10.06h0C41.4,9.67,44.57,8,59.57.22L60,0,79.32,10l0,0c1,.44,4.47,2.27,18.92,9.79L117.62,30V90.4h-.7l-18.7,9.73-19.09,9.92c-1.6.82-12.69,6.6-18.7,9.73ZM41.54,108.31,60,117.9c14.09-7.33,17.54-9.13,18.49-9.57l0,0,18.89-9.82c12.58-6.54,16.87-8.77,18.4-9.54V31.08l-18.4-9.56c-6-3.12-17.1-8.9-18.7-9.72h0L60,2.1,41.66,11.64l-.13.07L4.24,31.08V88.92l18.38,9.55c15,7.8,18.19,9.45,18.91,9.85Z"/></g></g></svg>