<svg width="41" height="40" viewBox="0 0 41 40" fill="none" xmlns="http://www.w3.org/2000/svg">
<path d="M13.0607 0.939339C12.4749 0.353554 11.5251 0.353554 10.9393 0.939339L1.3934 10.4853C0.80761 11.0711 0.80761 12.0208 1.3934 12.6066C1.97918 13.1924 2.92893 13.1924 3.51472 12.6066L12 4.12132L20.4853 12.6066C21.0711 13.1924 22.0208 13.1924 22.6066 12.6066C23.1924 12.0208 23.1924 11.0711 22.6066 10.4853L13.0607 0.939339ZM13.5 38L13.5 2L10.5 2L10.5 38L13.5 38Z" fill="white"/>
<path d="M27.9393 39.0607C28.5251 39.6464 29.4749 39.6464 30.0607 39.0607L39.6066 29.5147C40.1924 28.9289 40.1924 27.9792 39.6066 27.3934C39.0208 26.8076 38.0711 26.8076 37.4853 27.3934L29 35.8787L20.5147 27.3934C19.9289 26.8076 18.9792 26.8076 18.3934 27.3934C17.8076 27.9792 17.8076 28.9289 18.3934 29.5147L27.9393 39.0607ZM27.5 2L27.5 38L30.5 38L30.5 2L27.5 2Z" fill="white"/>
</svg>
