<svg width="47" height="47" viewBox="0 0 47 47" fill="none" xmlns="http://www.w3.org/2000/svg">
<path d="M43.5277 44.851L39.1406 44.8563V37.6493C39.1406 35.841 38.8366 34.0694 38.2338 32.3816C37.652 30.7515 36.8029 29.2368 35.718 27.8792C34.1979 25.9818 32.2481 24.467 30.0624 23.4554C32.2481 22.4438 34.1979 20.9291 35.718 19.0317C36.8029 17.6741 37.652 16.1594 38.2338 14.5293C38.8366 12.8415 39.1406 11.0699 39.1406 9.26163V4.40805H37.044V9.26163C37.044 12.3698 36.0167 15.2945 34.0774 17.7161C32.1957 20.0642 29.5593 21.7415 26.645 22.4334C26.2676 22.5172 25.9531 22.8108 25.8588 23.2143C25.7278 23.7752 26.0737 24.3413 26.6398 24.4775C29.554 25.1694 32.1957 26.8414 34.0826 29.1948C36.022 31.6164 37.0493 34.5411 37.0493 37.6493V44.8615L9.97723 44.8982V37.6493C9.97723 34.5568 10.9941 31.6426 12.9124 29.2315C14.7784 26.8886 17.3991 25.2061 20.2871 24.4985C20.7694 24.3832 21.0891 23.9481 21.0838 23.4764V23.4554V23.4345C21.0838 22.9628 20.7641 22.5277 20.2871 22.4124C17.3939 21.7048 14.7732 20.0275 12.9124 17.6794C10.9888 15.2631 9.97723 12.3541 9.97723 9.26163V2.14375L43.5749 2.10182C44.1514 2.10182 44.6232 1.63009 44.6232 1.05353C44.6232 0.476971 44.1514 0.00524142 43.5749 0.00524142L9.27488 0.0471729C9.18053 0.0157243 9.07571 0 8.97088 0C8.86081 0 8.75598 0.0157243 8.65639 0.0471729L3.51978 0.0576558C2.94322 0.0576558 2.47149 0.529386 2.47149 1.10594C2.47149 1.6825 2.94322 2.15423 3.51978 2.15423L7.87017 2.14899V9.26163C7.87017 11.0594 8.17418 12.8206 8.7717 14.5031C9.34826 16.1279 10.1869 17.6374 11.2614 18.9897C12.7866 20.9081 14.7469 22.4386 16.9483 23.4554C14.7469 24.4775 12.7866 26.008 11.2614 27.9212C10.1869 29.2787 9.34826 30.783 8.7717 32.4078C8.17418 34.0851 7.87017 35.8515 7.87017 37.6493V44.8982L3.4726 44.9034C2.89605 44.9034 2.42432 45.3752 2.42432 45.9517C2.42432 46.5283 2.89605 47 3.4726 47L38.0032 46.9528H38.0714L43.5277 46.9476C44.1043 46.9476 44.576 46.4759 44.576 45.8993C44.576 45.3227 44.1043 44.851 43.5277 44.851Z" fill="white"/>
</svg>
