<svg width="56" height="56" viewBox="0 0 56 56" fill="none" xmlns="http://www.w3.org/2000/svg">
<path d="M41.4428 20.4391H17.8087V15.851C17.8087 10.1802 22.2662 5.73809 27.9565 5.73809C32.2288 5.73809 35.9438 8.29449 37.4209 12.2508C37.6322 12.817 38.2622 13.1045 38.8287 12.8932C39.3948 12.6818 39.6823 12.0516 39.4709 11.4854C37.6712 6.66476 33.1515 3.5498 27.9565 3.5498C24.5704 3.5498 21.4352 4.84387 19.1287 7.19372C16.8663 9.4984 15.6204 12.573 15.6204 15.851V20.4391H14.5262C11.2026 20.4391 8.5083 23.1334 8.5083 26.457V46.4803C8.5083 49.8039 11.2026 52.4982 14.5262 52.4982H41.4428C44.7664 52.4982 47.4607 49.804 47.4607 46.4803V26.457C47.4607 23.1334 44.7664 20.4391 41.4428 20.4391ZM45.2724 46.4803C45.2724 48.5953 43.5578 50.3099 41.4428 50.3099H14.5262C12.4112 50.3099 10.6966 48.5953 10.6966 46.4803V26.457C10.6966 24.342 12.4112 22.6274 14.5262 22.6274H41.4428C43.5578 22.6274 45.2724 24.342 45.2724 26.457V46.4803Z" fill="white"/>
<path d="M27.8749 31.9287C27.2707 31.9287 26.7808 32.4187 26.7808 33.0229V39.0408C26.7808 39.645 27.2707 40.135 27.8749 40.135C28.4792 40.135 28.9691 39.6451 28.9691 39.0408L28.9691 33.0229C28.9691 32.4186 28.4792 31.9287 27.8749 31.9287Z" fill="white"/>
</svg>
