<svg width="180" height="50" viewBox="0 0 180 50" fill="none" xmlns="http://www.w3.org/2000/svg">
<path d="M53.7858 16.9655H69.4216V20.2249H57.5218V23.8994H68.0686V26.9589H57.5218V32.0632H69.6676V35.3226H53.7858V16.9655Z" fill="#2ED1D8"/>
<path d="M82.2439 22.2851L84.012 20.1327H72.9885V16.9655H90.9459L80.6757 29.8647L78.8462 32.1401H90.377V35.3072H72.066L82.2439 22.2851Z" fill="#2ED1D8"/>
<path d="M93.99 31.0639C94.9278 31.6328 95.9579 32.0479 97.0956 32.3092C98.218 32.5706 99.371 32.709 100.555 32.709C101.354 32.709 102.015 32.6475 102.554 32.5398C103.092 32.4322 103.507 32.2939 103.83 32.1247C104.152 31.9556 104.383 31.7557 104.506 31.5405C104.644 31.3253 104.706 31.0946 104.706 30.864C104.706 30.5412 104.568 30.2491 104.275 30.0184C103.983 29.7878 103.522 29.6648 102.861 29.6648C102.554 29.6648 102.231 29.6802 101.877 29.7263C101.523 29.7724 101.154 29.8032 100.77 29.8493C100.386 29.8954 99.986 29.9262 99.5555 29.9723C99.1404 30.0184 98.7099 30.0338 98.2795 30.0338C97.3416 30.0338 96.5421 29.9262 95.881 29.7263C95.2199 29.5265 94.6818 29.2497 94.2667 28.8961C93.8516 28.5425 93.5441 28.1274 93.3596 27.6508C93.1751 27.1742 93.0829 26.6514 93.0829 26.0979C93.0829 25.3907 93.252 24.745 93.5749 24.1454C93.8977 23.5458 94.3743 23.0384 94.9893 22.6079C95.6043 22.1775 96.3423 21.8392 97.2032 21.5932C98.0642 21.3472 99.0328 21.2242 100.094 21.2242C100.647 21.2242 101.231 21.255 101.831 21.3165C102.431 21.378 103.03 21.4702 103.614 21.5779C104.199 21.6855 104.767 21.8085 105.306 21.9622C105.844 22.1006 106.32 22.2543 106.735 22.4235L105.644 25.1294C104.752 24.8065 103.876 24.5451 102.999 24.3453C102.123 24.1608 101.216 24.0531 100.278 24.0531C99.6324 24.0531 99.0789 24.0993 98.6331 24.2069C98.1872 24.2991 97.8182 24.4375 97.5415 24.5912C97.2647 24.745 97.0495 24.9295 96.9265 25.1447C96.8035 25.36 96.7266 25.5752 96.7266 25.7905C96.7266 25.9596 96.7574 26.0979 96.8189 26.2363C96.8804 26.3747 96.988 26.4823 97.1417 26.5899C97.2955 26.6822 97.4954 26.759 97.7413 26.8205C97.9873 26.8667 98.2948 26.8974 98.6484 26.8974C98.9713 26.8974 99.3249 26.882 99.6939 26.8359C100.063 26.7898 100.447 26.759 100.847 26.7129C101.247 26.6668 101.662 26.6361 102.092 26.5899C102.523 26.5438 102.953 26.5284 103.399 26.5284C104.229 26.5284 104.952 26.6207 105.582 26.8205C106.197 27.0204 106.72 27.2972 107.12 27.6354C107.52 27.989 107.827 28.4041 108.042 28.8807C108.242 29.3573 108.35 29.8801 108.35 30.4489C108.35 31.1715 108.181 31.848 107.842 32.4783C107.504 33.1087 107.012 33.6468 106.336 34.108C105.675 34.5693 104.844 34.9229 103.845 35.1843C102.861 35.4456 101.708 35.5686 100.417 35.5686C99.617 35.5686 98.8483 35.5225 98.1103 35.4149C97.3724 35.3226 96.6651 35.1843 95.9887 35.0151C95.3122 34.846 94.6818 34.6461 94.0976 34.4155C93.5134 34.1849 92.9753 33.9389 92.4833 33.6929L93.99 31.0639Z" fill="#2ED1D8"/>
<path d="M109.564 21.4549H113.592L117.19 29.7878L118.251 32.1247L119.542 29.096L116.114 21.4549H119.496L121.172 25.5598L122.848 21.4549H126.23L122.802 29.096L124.109 32.1247L125.169 29.7878L128.767 21.4549H132.795L126.23 35.3226H122.448L121.187 32.6475L119.927 35.3226H116.145L109.564 21.4549Z" fill="#2ED1D8"/>
<path d="M134.563 30.9563C134.563 30.2952 134.702 29.6802 134.994 29.1421C135.286 28.5886 135.716 28.1274 136.301 27.7276C136.885 27.3279 137.607 27.0204 138.468 26.8052C139.329 26.5899 140.344 26.4823 141.497 26.4823C142.343 26.4823 143.25 26.5438 144.188 26.6668C145.125 26.7898 146.109 26.9897 147.109 27.2357C147.063 26.7898 146.94 26.3901 146.709 26.0211C146.478 25.6521 146.171 25.3292 145.771 25.0525C145.371 24.7757 144.879 24.5759 144.311 24.4221C143.742 24.2684 143.096 24.1915 142.373 24.1915C141.989 24.1915 141.559 24.2223 141.082 24.2684C140.605 24.3145 140.129 24.3914 139.621 24.4836C139.114 24.5759 138.622 24.6989 138.13 24.8372C137.638 24.9756 137.192 25.1447 136.762 25.3446L135.716 22.5003C136.239 22.3158 136.808 22.1467 137.408 21.9776C138.007 21.8238 138.622 21.6855 139.252 21.5779C139.883 21.4702 140.498 21.378 141.128 21.3165C141.758 21.255 142.358 21.2242 142.942 21.2242C145.541 21.2242 147.462 21.8853 148.723 23.2075C149.984 24.5298 150.614 26.5592 150.614 29.2958V35.338H147.14V34.0312C146.786 34.2464 146.386 34.4463 145.956 34.6308C145.525 34.8153 145.064 34.9844 144.557 35.1228C144.049 35.2611 143.511 35.3687 142.942 35.461C142.373 35.5379 141.758 35.584 141.113 35.584C140.037 35.584 139.083 35.461 138.268 35.2304C137.454 34.9998 136.762 34.6769 136.224 34.2618C135.67 33.8467 135.255 33.3547 134.978 32.8012C134.702 32.217 134.563 31.6174 134.563 30.9563ZM138.238 30.8333C138.238 31.0639 138.299 31.2791 138.407 31.479C138.53 31.6943 138.714 31.8634 138.976 32.0325C139.237 32.1862 139.56 32.3246 139.975 32.4169C140.375 32.5091 140.867 32.5706 141.436 32.5706C142.051 32.5706 142.635 32.5091 143.204 32.4015C143.773 32.2939 144.311 32.1401 144.803 31.971C145.295 31.7865 145.74 31.5866 146.14 31.356C146.54 31.1254 146.878 30.8794 147.14 30.6334V30.0184C146.601 29.8647 146.079 29.7417 145.556 29.6494C145.033 29.5418 144.541 29.465 144.065 29.4035C143.588 29.342 143.142 29.3112 142.727 29.2805C142.312 29.2497 141.943 29.2497 141.635 29.2497C140.99 29.2497 140.452 29.2958 140.021 29.3727C139.591 29.465 139.237 29.5726 138.976 29.7263C138.714 29.8647 138.514 30.0492 138.407 30.2337C138.284 30.4182 138.238 30.618 138.238 30.8333Z" fill="#2ED1D8"/>
<path d="M158.578 40.9804H155.104V21.4702H158.578V22.7771C158.886 22.5618 159.239 22.362 159.654 22.1775C160.069 21.993 160.515 21.8238 160.992 21.6855C161.469 21.5471 161.961 21.4395 162.468 21.3472C162.975 21.2704 163.483 21.2242 163.99 21.2242C165.158 21.2242 166.235 21.3934 167.219 21.747C168.203 22.0852 169.048 22.5772 169.755 23.2075C170.463 23.8379 171.016 24.5759 171.4 25.4522C171.8 26.3286 172 27.2972 172 28.3426C172 29.4496 171.8 30.4489 171.385 31.3253C170.97 32.217 170.401 32.9703 169.663 33.6007C168.925 34.231 168.064 34.723 167.049 35.0613C166.05 35.3995 164.959 35.5686 163.775 35.5686C163.267 35.5686 162.775 35.5379 162.283 35.4764C161.791 35.4149 161.33 35.3226 160.869 35.215C160.423 35.1074 159.993 34.969 159.608 34.8153C159.209 34.6615 158.87 34.4924 158.563 34.3233V40.9804H158.578ZM158.578 30.9717C158.932 31.2484 159.301 31.4944 159.7 31.6943C160.085 31.8941 160.485 32.0479 160.9 32.1709C161.299 32.2939 161.715 32.3861 162.13 32.4476C162.545 32.5091 162.944 32.5398 163.344 32.5398C164.144 32.5398 164.851 32.4322 165.481 32.217C166.096 32.0017 166.634 31.7096 167.049 31.3253C167.48 30.9563 167.803 30.5104 168.033 30.0031C168.264 29.4957 168.372 28.9422 168.372 28.3426C168.372 27.7891 168.264 27.2664 168.033 26.7744C167.803 26.2824 167.495 25.852 167.065 25.483C166.65 25.114 166.142 24.8219 165.543 24.6066C164.959 24.3914 164.282 24.2838 163.559 24.2838C163.083 24.2838 162.622 24.3299 162.145 24.4221C161.668 24.5144 161.223 24.6374 160.792 24.8065C160.362 24.9756 159.946 25.1755 159.577 25.4061C159.193 25.6367 158.87 25.8981 158.578 26.1902V30.9717Z" fill="#2ED1D8"/>
<path d="M9.20234 17.5877L7 25.9841L26.8997 45.8838L28.5908 36.9565L15.5931 23.9587L24.5597 22.2283L18.1887 15.8376L9.20234 17.5877Z" fill="#2ED1D8"/>
<path d="M22.79 31.1753L15.5931 23.9587L7 25.9841L15.6324 34.6165L22.79 31.1753Z" fill="url(#paint0_linear_47_2257)"/>
<path d="M42.6897 32.2961L44.9117 23.8997L24.9923 4L23.3209 12.9273L36.3187 25.9054L27.3323 27.6555L33.723 34.0265L42.6897 32.2961Z" fill="#2ED1D8"/>
<path d="M29.1021 18.7085L36.3186 25.9054L44.9117 23.8997L36.2597 15.2673L29.1021 18.7085Z" fill="url(#paint1_linear_47_2257)"/>
<defs>
<linearGradient id="paint0_linear_47_2257" x1="18.3767" y1="33.2832" x2="12.0255" y2="24.6848" gradientUnits="userSpaceOnUse">
<stop stop-color="#2ED1D8"/>
<stop offset="1" stop-color="#00A0A0"/>
</linearGradient>
<linearGradient id="paint1_linear_47_2257" x1="33.5263" y1="16.5975" x2="39.8775" y2="25.196" gradientUnits="userSpaceOnUse">
<stop stop-color="#2ED1D8"/>
<stop offset="1" stop-color="#00A0A0"/>
</linearGradient>
</defs>
</svg>
