<svg width="54" height="54" viewBox="0 0 54 54" fill="none" xmlns="http://www.w3.org/2000/svg">
<path d="M33.282 50.892C32.5699 50.892 31.887 50.6091 31.3834 50.1056C30.8799 49.602 30.597 48.9191 30.597 48.207V40.692C30.597 39.21 31.797 38.007 33.282 38.007H33.819V35.538C33.8062 33.7225 34.5014 31.9734 35.7572 30.6622C37.013 29.3509 38.7303 28.5808 40.5447 28.5152C42.3591 28.4496 44.1276 29.0937 45.4748 30.3109C46.822 31.528 47.6417 33.2223 47.76 35.034C47.769 35.094 47.769 36.084 47.76 38.004H44.556V35.268C44.4815 34.2978 44.0352 33.3938 43.3102 32.7449C42.5852 32.0959 41.6375 31.752 40.665 31.785C39.6932 31.8199 38.7727 32.2301 38.097 32.9294C37.4212 33.6286 37.0427 34.5626 37.041 35.535V38.007H48.315C49.797 38.007 51 39.207 51 40.692V48.207C51 49.692 49.8 50.892 48.315 50.892H33.282ZM47.778 42.303C47.778 42.0182 47.6648 41.745 47.4634 41.5436C47.262 41.3422 46.9888 41.229 46.704 41.229H34.893C34.752 41.229 34.6123 41.2568 34.482 41.3108C34.3517 41.3647 34.2333 41.4438 34.1336 41.5436C34.0338 41.6433 33.9547 41.7617 33.9008 41.892C33.8468 42.0223 33.819 42.162 33.819 42.303V46.596C33.819 47.19 34.299 47.67 34.893 47.67H46.704C47.298 47.67 47.778 47.19 47.778 46.596V42.303ZM15.564 39.012H25.665C26.035 39.012 26.3898 39.159 26.6514 39.4206C26.913 39.6822 27.06 40.037 27.06 40.407C27.06 40.777 26.913 41.1318 26.6514 41.3934C26.3898 41.655 26.035 41.802 25.665 41.802H14.169C13.5521 41.802 12.9604 41.5571 12.5239 41.1212C12.0874 40.6853 11.8418 40.0939 11.841 39.477V13.695C11.841 12.411 12.885 11.37 14.169 11.37H36.039C37.329 11.37 38.367 12.411 38.367 13.695V23.421C38.367 23.791 38.22 24.1458 37.9584 24.4074C37.6968 24.669 37.342 24.816 36.972 24.816C36.602 24.816 36.2472 24.669 35.9856 24.4074C35.724 24.1458 35.577 23.791 35.577 23.421V15.093C35.577 14.8463 35.479 14.6098 35.3046 14.4354C35.1302 14.261 34.8937 14.163 34.647 14.163H15.567C15.3203 14.163 15.0838 14.261 14.9094 14.4354C14.735 14.6098 14.637 14.8463 14.637 15.093V38.082C14.637 38.595 15.051 39.012 15.567 39.012H15.564ZM45.174 24.639C44.6796 24.6382 44.2058 24.4413 43.8565 24.0914C43.5072 23.7415 43.311 23.2674 43.311 22.773V7.974C43.3114 7.81039 43.2795 7.64832 43.217 7.49709C43.1546 7.34586 43.0629 7.20846 42.9472 7.09277C42.8315 6.97708 42.6941 6.88539 42.5429 6.82296C42.3917 6.76054 42.2296 6.7286 42.066 6.729H7.974C7.81039 6.7286 7.64832 6.76054 7.49709 6.82296C7.34586 6.88539 7.20846 6.97708 7.09277 7.09277C6.97708 7.20846 6.88539 7.34586 6.82296 7.49709C6.76054 7.64832 6.7286 7.81039 6.729 7.974V46.026C6.729 46.716 7.287 47.271 7.974 47.271H25.134C25.6156 47.2903 26.071 47.4952 26.4048 47.8428C26.7387 48.1903 26.9252 48.6536 26.9252 49.1355C26.9252 49.6174 26.7387 50.0807 26.4048 50.4282C26.071 50.7758 25.6156 50.9807 25.134 51H6.108C5.28371 51 4.49318 50.6726 3.91031 50.0897C3.32745 49.5068 3 48.7163 3 47.892V6.108C3 4.392 4.392 3 6.108 3H43.932C45.648 3 47.04 4.392 47.04 6.108V22.773C47.04 23.2674 46.8438 23.7415 46.4945 24.0914C46.1452 24.4413 45.6714 24.6382 45.177 24.639H45.174ZM19.062 18H31.062C31.4598 18 31.8414 18.158 32.1227 18.4393C32.404 18.7206 32.562 19.1022 32.562 19.5C32.562 19.8978 32.404 20.2794 32.1227 20.5607C31.8414 20.842 31.4598 21 31.062 21H19.062C18.6642 21 18.2826 20.842 18.0013 20.5607C17.72 20.2794 17.562 19.8978 17.562 19.5C17.562 19.1022 17.72 18.7206 18.0013 18.4393C18.2826 18.158 18.6642 18 19.062 18ZM19.062 24H31.062C31.4598 24 31.8414 24.158 32.1227 24.4393C32.404 24.7206 32.562 25.1022 32.562 25.5C32.562 25.8978 32.404 26.2794 32.1227 26.5607C31.8414 26.842 31.4598 27 31.062 27H19.062C18.6642 27 18.2826 26.842 18.0013 26.5607C17.72 26.2794 17.562 25.8978 17.562 25.5C17.562 25.1022 17.72 24.7206 18.0013 24.4393C18.2826 24.158 18.6642 24 19.062 24ZM19.062 30H28.062C28.4598 30 28.8414 30.158 29.1227 30.4393C29.404 30.7206 29.562 31.1022 29.562 31.5C29.562 31.8978 29.404 32.2794 29.1227 32.5607C28.8414 32.842 28.4598 33 28.062 33H19.062C18.6642 33 18.2826 32.842 18.0013 32.5607C17.72 32.2794 17.562 31.8978 17.562 31.5C17.562 31.1022 17.72 30.7206 18.0013 30.4393C18.2826 30.158 18.6642 30 19.062 30Z" fill="white"/>
</svg>
