<svg width="21" height="702" viewBox="0 0 21 702" fill="none" xmlns="http://www.w3.org/2000/svg">
<path d="M19.8011 582.715L19.8011 702" stroke="#2ED1D8" stroke-miterlimit="10"/>
<path d="M19.8011 0L19.8012 133.682" stroke="#2ED1D8" stroke-miterlimit="10"/>
<path d="M20 133.853L1.29142 152.562L1.29142 358.376L1.29141 564.184L20 582.893" stroke="#2ED1D8" stroke-miterlimit="10"/>
<path d="M1.29143 166.595L1.29142 372.409L1.29141 578.217L20 596.926" stroke="#2ED1D8" stroke-miterlimit="10"/>
<path d="M20 119.82L1.29142 138.528L1.29142 344.343L1.29141 550.151" stroke="#2ED1D8" stroke-miterlimit="10"/>
<path d="M16.7231 152.562C16.7231 153.466 17.4566 154.2 18.3615 154.2C19.2664 154.2 20 153.466 20 152.562C20 151.657 19.2664 150.923 18.3615 150.923C17.4566 150.923 16.7231 151.657 16.7231 152.562Z" fill="#2ED1D8"/>
<path d="M16.7231 565.261C16.7231 566.166 17.4566 566.899 18.3615 566.899C19.2664 566.899 20 566.166 20 565.261C20 564.356 19.2664 563.622 18.3615 563.622C17.4566 563.622 16.7231 564.356 16.7231 565.261Z" fill="#2ED1D8"/>
</svg>
