<svg width="21" height="702" viewBox="0 0 21 702" fill="none" xmlns="http://www.w3.org/2000/svg">
<path d="M1.19885 582.715L1.19886 702" stroke="#2ED1D8" stroke-miterlimit="10"/>
<path d="M1.19885 0L1.19885 133.682" stroke="#2ED1D8" stroke-miterlimit="10"/>
<path d="M1 133.853L19.7086 152.562L19.7086 358.376L19.7086 564.184L1.00002 582.893" stroke="#2ED1D8" stroke-miterlimit="10"/>
<path d="M19.7086 166.595L19.7086 372.409L19.7086 578.217L1.00002 596.926" stroke="#2ED1D8" stroke-miterlimit="10"/>
<path d="M1 119.82L19.7086 138.528L19.7086 344.343L19.7086 550.151" stroke="#2ED1D8" stroke-miterlimit="10"/>
<path d="M4.27692 152.562C4.27692 153.466 3.54336 154.2 2.63846 154.2C1.73357 154.2 1 153.466 1 152.562C1 151.657 1.73357 150.923 2.63846 150.923C3.54336 150.923 4.27692 151.657 4.27692 152.562Z" fill="#2ED1D8"/>
<path d="M4.27692 565.261C4.27692 566.166 3.54336 566.899 2.63846 566.899C1.73357 566.899 1 566.166 1 565.261C1 564.356 1.73357 563.622 2.63846 563.622C3.54336 563.622 4.27692 564.356 4.27692 565.261Z" fill="#2ED1D8"/>
</svg>
