<svg width="24" height="24" viewBox="0 0 24 24" fill="none" xmlns="http://www.w3.org/2000/svg">
<rect opacity="0.01" x="0.5" y="0.5" width="23" height="23" fill="#D8D8D8" stroke="#979797"/>
<path fill-rule="evenodd" clip-rule="evenodd" d="M21.031 5.92252C22.004 5.34032 22.7319 4.42398 23.079 3.34451C22.1649 3.8875 21.1643 4.26971 20.121 4.47452C19.4194 3.72538 18.4901 3.22885 17.4773 3.06198C16.4646 2.89514 15.4251 3.06732 14.5202 3.55176C13.6154 4.03622 12.8958 4.80587 12.4732 5.74122C12.0505 6.67657 11.9485 7.72527 12.183 8.72452C10.3307 8.63151 8.51864 8.15008 6.86441 7.31143C5.21021 6.47279 3.75083 5.29569 2.581 3.85651C2.18101 4.54651 1.951 5.34652 1.951 6.19851C1.95056 6.96552 2.13943 7.72077 2.50089 8.39725C2.86232 9.07374 3.38515 9.65055 4.02301 10.0765C3.28327 10.053 2.55988 9.8531 1.91301 9.49353V9.55352C1.91292 10.6293 2.28502 11.6719 2.96618 12.5045C3.64734 13.3371 4.59556 13.9085 5.65001 14.1215C4.96379 14.3072 4.24435 14.3346 3.546 14.2015C3.84349 15.1271 4.423 15.9365 5.20336 16.5164C5.98374 17.0964 6.92593 17.4177 7.89799 17.4355C6.24783 18.7309 4.20988 19.4336 2.112 19.4305C1.74037 19.4306 1.36909 19.4089 1 19.3655C3.12948 20.7347 5.60834 21.4613 8.13999 21.4585C16.71 21.4585 21.395 14.3605 21.395 8.20451C21.395 8.00451 21.39 7.80252 21.381 7.60252C22.2923 6.9435 23.0789 6.12741 23.704 5.19252L23.706 5.18951C22.871 5.55951 21.974 5.80952 21.031 5.92252Z" fill="#B5B5B5"/>
</svg>
