<svg width="52" height="52" viewBox="0 0 52 52" fill="none" xmlns="http://www.w3.org/2000/svg">
<path d="M32.0491 49.0069C31.3634 49.0069 30.7057 48.7345 30.2208 48.2496C29.736 47.7647 29.4636 47.1071 29.4636 46.4213V39.1847C29.4636 37.7576 30.6191 36.5991 32.0491 36.5991H38.344V34.2216C38.3316 32.4733 39.0011 30.789 40.2104 29.5263C41.4197 28.2637 43.0734 27.522 44.8206 27.4588C46.5678 27.3957 48.2708 28.016 49.5681 29.188C50.8654 30.3601 51.6548 31.9916 51.7687 33.7362C51.7744 33.7767 51.4076 34.444 50.4109 34.8687C49.4171 35.2962 48.6833 34.1291 48.6833 33.9616C48.6123 33.027 48.1827 32.1561 47.4844 31.531C46.7861 30.9059 45.8731 30.575 44.9364 30.6076C44.0006 30.6412 43.1143 31.0362 42.4635 31.7095C41.8128 32.3829 41.4483 33.2823 41.4467 34.2187V36.5991H46.5253C47.9524 36.5991 49.1109 37.7547 49.1109 39.1847V46.4213C49.1109 47.8513 47.9553 49.0069 46.5253 49.0069H32.0491ZM46.0082 40.736C46.0082 40.4617 45.8993 40.1987 45.7053 40.0047C45.5114 39.8107 45.2483 39.7018 44.974 39.7018H33.6004C33.4646 39.7018 33.3301 39.7285 33.2047 39.7805C33.0792 39.8325 32.9652 39.9087 32.8691 40.0047C32.7731 40.1007 32.6969 40.2147 32.6449 40.3402C32.593 40.4657 32.5662 40.6002 32.5662 40.736V44.87C32.5662 45.442 33.0284 45.9042 33.6004 45.9042H44.974C45.546 45.9042 46.0082 45.442 46.0082 44.87V40.736ZM14.9873 37.5669H24.7142C25.0705 37.5669 25.4122 37.7084 25.6641 37.9604C25.916 38.2123 26.0576 38.554 26.0576 38.9102C26.0576 39.2665 25.916 39.6082 25.6641 39.8601C25.4122 40.112 25.0705 40.2536 24.7142 40.2536H13.644C13.0499 40.2536 12.4802 40.0178 12.0598 39.598C11.6395 39.1782 11.403 38.6087 11.4022 38.0147V13.1876C11.4022 11.9511 12.4076 10.9487 13.644 10.9487H34.704C35.9462 10.9487 36.9458 11.9511 36.9458 13.1876V22.5533C36.9458 22.9096 36.8042 23.2513 36.5523 23.5032C36.3004 23.7551 35.9587 23.8967 35.6024 23.8967C35.2462 23.8967 34.9045 23.7551 34.6526 23.5032C34.4006 23.2513 34.2591 22.9096 34.2591 22.5533V14.5338C34.2591 14.2963 34.1648 14.0685 33.9968 13.9005C33.8289 13.7326 33.6011 13.6382 33.3636 13.6382H14.9902C14.7527 13.6382 14.5249 13.7326 14.357 13.9005C14.189 14.0685 14.0947 14.2963 14.0947 14.5338V36.6713C14.0947 37.1653 14.4933 37.5669 14.9902 37.5669H14.9873ZM43.5007 23.7262C43.0246 23.7255 42.5683 23.5358 42.2319 23.1989C41.8956 22.862 41.7067 22.4054 41.7067 21.9293V7.67845C41.707 7.5209 41.6763 7.36483 41.6162 7.2192C41.5561 7.07358 41.4678 6.94126 41.3564 6.82986C41.245 6.71845 41.1127 6.63016 40.967 6.57005C40.8214 6.50993 40.6653 6.47918 40.5078 6.47956H7.67845C7.5209 6.47918 7.36483 6.50993 7.2192 6.57005C7.07358 6.63016 6.94126 6.71845 6.82986 6.82986C6.71845 6.94126 6.63016 7.07358 6.57004 7.2192C6.50993 7.36483 6.47918 7.5209 6.47956 7.67845V44.3211C6.47956 44.9856 7.01689 45.52 7.67845 45.52H24.2029C24.6666 45.5386 25.1052 45.7359 25.4267 46.0706C25.7482 46.4053 25.9277 46.8514 25.9277 47.3154C25.9277 47.7795 25.7482 48.2256 25.4267 48.5603C25.1052 48.895 24.6666 49.0923 24.2029 49.1109H5.88156C5.0878 49.1109 4.32654 48.7956 3.76527 48.2343C3.20399 47.673 2.88867 46.9118 2.88867 46.118V5.88156C2.88867 4.22912 4.22912 2.88867 5.88156 2.88867H42.3047C43.9571 2.88867 45.2976 4.22912 45.2976 5.88156V21.9293C45.2976 22.4054 45.1086 22.862 44.7723 23.1989C44.4359 23.5358 43.9796 23.7255 43.5036 23.7262H43.5007Z" fill="white"/>
</svg>
