<svg width="63" height="63" viewBox="0 0 63 63" fill="none" xmlns="http://www.w3.org/2000/svg">
<path d="M52.0714 53.3569H10.9285C8.09993 53.3569 5.78564 51.0426 5.78564 48.214V14.7854C5.78564 11.9569 8.09993 9.64258 10.9285 9.64258H52.0714C54.8999 9.64258 57.2142 11.9569 57.2142 14.7854V48.214C57.2142 51.0426 54.8999 53.3569 52.0714 53.3569ZM10.9285 12.214C9.51422 12.214 8.35707 13.3711 8.35707 14.7854V48.214C8.35707 49.6283 9.51422 50.7854 10.9285 50.7854H52.0714C53.4856 50.7854 54.6428 49.6283 54.6428 48.214V14.7854C54.6428 13.3712 53.4856 12.214 52.0714 12.214H10.9285Z" fill="white"/>
<path d="M57.2145 42.4284H37.2859C34.4574 42.4284 32.1431 40.1141 32.1431 37.2856V25.7141C32.1431 22.8856 34.4574 20.5713 37.2859 20.5713H57.2145V42.4284ZM37.2859 23.1427C35.8716 23.1427 34.7145 24.2999 34.7145 25.7141V37.2856C34.7145 38.6999 35.8716 39.857 37.2859 39.857H54.6431V23.1427H37.2859Z" fill="white"/>
<path d="M39.8569 31.5004C39.8569 31.9225 39.9401 32.3405 40.1016 32.7305C40.2631 33.1204 40.4999 33.4748 40.7984 33.7733C41.0969 34.0717 41.4512 34.3085 41.8412 34.47C42.2311 34.6316 42.6491 34.7147 43.0712 34.7147C43.4933 34.7147 43.9113 34.6316 44.3013 34.47C44.6912 34.3085 45.0456 34.0717 45.3441 33.7733C45.6425 33.4748 45.8793 33.1204 46.0408 32.7305C46.2024 32.3405 46.2855 31.9225 46.2855 31.5004C46.2855 31.0783 46.2024 30.6603 46.0408 30.2704C45.8793 29.8804 45.6425 29.526 45.3441 29.2276C45.0456 28.9291 44.6912 28.6923 44.3013 28.5308C43.9113 28.3693 43.4933 28.2861 43.0712 28.2861C42.6491 28.2861 42.2311 28.3693 41.8412 28.5308C41.4512 28.6923 41.0969 28.9291 40.7984 29.2276C40.4999 29.526 40.2631 29.8804 40.1016 30.2704C39.9401 30.6603 39.8569 31.0783 39.8569 31.5004Z" fill="white"/>
</svg>
