<svg width="28" height="28" viewBox="0 0 28 28" fill="none" xmlns="http://www.w3.org/2000/svg">
<path d="M22.627 21.257C24.2812 19.2938 25.2793 16.7617 25.2793 14C25.2793 7.78203 20.218 2.7207 14 2.7207C7.78203 2.7207 2.7207 7.78203 2.7207 14C2.7207 20.218 7.78203 25.2793 14 25.2793C17.3086 25.2793 20.2891 23.8465 22.3535 21.5715L22.4273 21.6125L22.627 21.257ZM14 9.87656C14.7848 9.87656 15.5641 9.82734 16.3352 9.73164C16.6113 11.0305 16.7727 12.3867 16.8055 13.7758H11.3613C11.3941 12.3949 11.5527 11.0441 11.8262 9.75078C12.5426 9.83555 13.2699 9.87656 14 9.87656ZM12.0832 8.67891C12.5453 6.97266 13.218 5.38672 14.082 3.99219C14.9434 5.38125 15.6133 6.95898 16.0754 8.65977C15.3891 8.73906 14.6973 8.78008 14 8.78008C13.3547 8.78008 12.7176 8.74727 12.0832 8.67891ZM17.902 13.7758C17.8691 12.3348 17.7051 10.9211 17.4207 9.56484C19.0969 9.25586 20.7102 8.71992 22.2031 7.9707C23.4062 9.60313 24.1363 11.6074 24.1828 13.7758H17.902ZM10.2648 13.7758H3.81992C3.86641 11.6074 4.59648 9.60313 5.79961 7.9707C7.3418 8.74453 9.00703 9.29141 10.7406 9.59492C10.4562 10.9402 10.2977 12.343 10.2648 13.7758ZM10.2648 14.8723C10.2949 16.152 10.4289 17.4152 10.6613 18.6402C9.00156 18.9383 7.40195 19.4605 5.91992 20.1906C4.76875 18.6922 4.025 16.8629 3.85547 14.875H10.2648V14.8723ZM11.3613 14.8723H16.8055C16.7754 16.1055 16.6441 17.3223 16.4172 18.4953C15.6215 18.3941 14.8148 18.3395 14 18.3395C13.2426 18.3395 12.4906 18.3859 11.7469 18.4734C11.5199 17.3086 11.3914 16.1 11.3613 14.8723ZM17.902 14.8723H24.1445C23.975 16.8602 23.2313 18.6895 22.0801 20.1879C20.6445 19.4824 19.1023 18.9711 17.5 18.6676C17.7352 17.4371 17.8719 16.1629 17.902 14.8723ZM21.484 7.10117C20.1305 7.75469 18.6758 8.22227 17.1664 8.4957C16.7289 6.84141 16.1027 5.28828 15.3043 3.89922C17.7352 4.21367 19.9008 5.38398 21.484 7.10117ZM12.8734 3.88008C12.0641 5.28555 11.4297 6.85234 10.9895 8.52578C9.42266 8.25781 7.91602 7.7793 6.51328 7.10117C8.1375 5.34297 10.3715 4.15625 12.8734 3.88008ZM6.6582 21.0492C7.98984 20.423 9.41445 19.9746 10.891 19.7121C11.2684 21.2652 11.807 22.7363 12.4934 24.0707C10.2184 23.7316 8.18398 22.6379 6.6582 21.0492ZM13.8004 24.1801C13.0074 22.7937 12.3977 21.2242 11.982 19.5535C12.6492 19.477 13.3219 19.4387 14 19.4387C14.7328 19.4387 15.4629 19.4824 16.1793 19.5727C15.7664 21.2352 15.1539 22.7965 14.3664 24.1773C14.2434 24.1828 14.123 24.1828 14 24.1828C13.9344 24.1828 13.866 24.1828 13.8004 24.1801ZM15.6844 24.0434C16.3598 22.7227 16.893 21.2707 17.2676 19.7395C18.6895 20.0047 20.0594 20.4449 21.3418 21.0492C19.857 22.5941 17.8883 23.6742 15.6844 24.0434Z" fill="#999999"/>
</svg>
